HIERARCHY
ROOT joint_Root
{
	OFFSET 0.0 0.0 0.0
	CHANNELS 6 Xposition Yposition Zposition Zrotation Xrotation Yrotation 
	JOINT Hips
	{
		OFFSET -17.1583 93.1646 452.98
		CHANNELS 6 Xposition Yposition Zposition Zrotation Xrotation Yrotation 
		JOINT Spine
		{
			OFFSET 15.7357 0.0 0.0
			CHANNELS 6 Xposition Yposition Zposition Zrotation Xrotation Yrotation 
			JOINT Chest
			{
				OFFSET 8.98455 -0.406207 0.0
				CHANNELS 6 Xposition Yposition Zposition Zrotation Xrotation Yrotation 
				JOINT Neck
				{
					OFFSET 16.3773 0.0 0.0
					CHANNELS 6 Xposition Yposition Zposition Zrotation Xrotation Yrotation 
					JOINT Head
					{
						OFFSET 6.45672 0.0 0.0
						CHANNELS 6 Xposition Yposition Zposition Zrotation Xrotation Yrotation 
						End Site
						{
							OFFSET 0.0 0.0 0.0
						}
					}
				}
				JOINT Shoulder_L
				{
					OFFSET 12.9942 -0.242716 4.98039
					CHANNELS 6 Xposition Yposition Zposition Zrotation Xrotation Yrotation 
					JOINT UpperArm_L
					{
						OFFSET 5.34809 0.0 0.0
						CHANNELS 6 Xposition Yposition Zposition Zrotation Xrotation Yrotation 
						JOINT LowerArm_L
						{
							OFFSET 24.3286 1.87007e-05 0.0
							CHANNELS 6 Xposition Yposition Zposition Zrotation Xrotation Yrotation 
							JOINT Hand_L
							{
								OFFSET 22.2916 0.0 0.0
								CHANNELS 6 Xposition Yposition Zposition Zrotation Xrotation Yrotation 
								End Site
								{
									OFFSET 0.0 0.0 0.0
								}
							}
						}
					}
				}
				JOINT Shoulder_R
				{
					OFFSET 12.9945 -0.242716 -4.98039
					CHANNELS 6 Xposition Yposition Zposition Zrotation Xrotation Yrotation 
					JOINT UpperArm_R
					{
						OFFSET -5.34813 0.0 0.0
						CHANNELS 6 Xposition Yposition Zposition Zrotation Xrotation Yrotation 
						JOINT LowerArm_R
						{
							OFFSET -24.3289 0.000322201 0.0
							CHANNELS 6 Xposition Yposition Zposition Zrotation Xrotation Yrotation 
							JOINT Hand_R
							{
								OFFSET -22.2915 -0.000108084 0.0
								CHANNELS 6 Xposition Yposition Zposition Zrotation Xrotation Yrotation 
								End Site
								{
									OFFSET 0.0 0.0 0.0
								}
							}
						}
					}
				}
			}
		}
		JOINT UpperLeg_L
		{
			OFFSET -2.19248 -6.46944 0.0
			CHANNELS 6 Xposition Yposition Zposition Zrotation Xrotation Yrotation 
			JOINT LowerLeg_L
			{
				OFFSET 39.0811 0.0 -1.23785e-05
				CHANNELS 6 Xposition Yposition Zposition Zrotation Xrotation Yrotation 
				JOINT Foot_L
				{
					OFFSET 40.9854 0.0 -1.26872e-05
					CHANNELS 6 Xposition Yposition Zposition Zrotation Xrotation Yrotation 
					JOINT Toes_L
					{
						OFFSET 11.7543 0.0 0.0
						CHANNELS 6 Xposition Yposition Zposition Zrotation Xrotation Yrotation 
						End Site
						{
							OFFSET 0.0 0.0 0.0
						}
					}
				}
			}
		}
		JOINT UpperLeg_R
		{
			OFFSET -2.19251 6.46944 0.0
			CHANNELS 6 Xposition Yposition Zposition Zrotation Xrotation Yrotation 
			JOINT LowerLeg_R
			{
				OFFSET -39.0811 -0.00228153 -0.0401928
				CHANNELS 6 Xposition Yposition Zposition Zrotation Xrotation Yrotation 
				JOINT Foot_R
				{
					OFFSET -40.9854 0.0 0.0
					CHANNELS 6 Xposition Yposition Zposition Zrotation Xrotation Yrotation 
					JOINT Toes_R
					{
						OFFSET -11.7543 0.0 0.0
						CHANNELS 6 Xposition Yposition Zposition Zrotation Xrotation Yrotation 
						End Site
						{
							OFFSET 0.0 0.0 0.0
						}
					}
				}
			}
		}
	}
}
MOTION
Frames:	6
Frame Time:	0.0333333
0.000000 0.000000 0.000000 0.000000 0.000000 -0.000000 -2.086920 92.545900 1.153940 86.993300 0.571312 -0.658020 15.735700 0.000005 -0.000001 87.360700 87.749100 -85.549000 8.984550 -0.406207 -0.000000 -3.260470 -0.381444 3.613380 16.377300 -0.000001 -0.000001 4.338040 3.472600 -2.215980 6.456720 -0.000001 -0.000000 2.942490 3.833660 -6.423770 12.994200 -0.242716 4.980390 -92.933700 8.848630 -71.574600 5.348090 -0.000007 -0.000001 -72.146900 7.912310 0.680150 24.328600 0.000019 0.000005 11.028200 24.023800 -25.580600 22.291600 -0.000001 0.000005 -0.993039 4.903300 9.311940 12.994500 -0.242716 -4.980390 88.480300 5.140690 -73.507100 -5.348130 -0.000001 -0.000004 -70.876400 32.005200 -3.992200 -24.328900 0.000322 -0.000009 2.401360 7.774770 -17.230400 -22.291500 -0.000108 -0.000004 0.600664 5.281660 0.580530 -2.192480 -6.469440 -0.000000 -175.340000 -0.764317 -4.114200 39.081100 -0.000007 -0.000012 0.241605 -0.622089 21.225500 40.985400 -0.000006 -0.000013 1.990250 9.935270 -73.703300 11.754300 -0.000000 0.000003 -0.000300 0.172529 -9.578850 -2.192510 6.469440 -0.000001 -174.004000 8.913760 -178.391000 -39.081100 -0.002282 -0.040193 0.042378 -0.184305 11.960400 -40.985400 0.000008 0.000006 1.127500 1.892640 -69.945800 -11.754300 -0.000006 -0.000006 -0.011188 0.279980 -5.196040
0.000000 0.000000 0.000000 0.000000 0.000000 -0.000000 -2.123640 92.556700 1.106800 86.966700 0.447721 -0.730001 15.735700 0.000005 -0.000001 87.056100 87.765300 -85.223600 8.984550 -0.406207 -0.000000 -3.293450 -0.406200 3.654170 16.377300 -0.000001 -0.000001 4.215620 3.469020 -2.337220 6.456720 -0.000001 -0.000000 2.841180 3.804700 -6.462520 12.994200 -0.242716 4.980390 -92.945000 8.888070 -71.584000 5.348090 -0.000007 -0.000001 -71.358600 5.941160 0.224090 24.328600 0.000019 0.000005 10.675700 23.792300 -25.045900 22.291600 -0.000001 0.000005 -0.945171 4.891460 9.547660 12.994500 -0.242716 -4.980390 88.499400 5.087470 -73.541700 -5.348130 -0.000001 -0.000004 -70.884600 31.926300 -4.020020 -24.328900 0.000322 -0.000009 2.436180 7.872110 -17.263500 -22.291500 -0.000108 -0.000004 0.567553 5.280280 0.618549 -2.192480 -6.469440 -0.000000 -175.290000 -0.870139 -4.192800 39.081100 -0.000007 -0.000012 0.241526 -0.622554 21.204700 40.985400 -0.000006 -0.000013 1.950390 9.918960 -73.699200 11.754300 -0.000000 0.000003 -0.000243 0.171615 -9.615980 -2.192510 6.469440 -0.000001 -173.941000 8.745630 -178.465000 -39.081100 -0.002282 -0.040193 0.041139 -0.179523 11.891300 -40.985400 0.000008 0.000006 1.136000 1.882390 -69.872500 -11.754300 -0.000006 -0.000006 -0.011076 0.279180 -5.228750
0.000000 0.000000 0.000000 0.000000 0.000000 -0.000000 -2.182960 92.561000 1.069820 86.909500 0.261330 -0.816296 15.735700 0.000005 -0.000001 87.197900 87.777200 -85.333400 8.984550 -0.406207 -0.000000 -3.316550 -0.397440 3.718260 16.377300 -0.000001 -0.000001 4.094270 3.457650 -2.436190 6.456720 -0.000001 -0.000000 2.661040 3.772380 -6.635740 12.994200 -0.242716 4.980390 -92.961900 8.916910 -71.540400 5.348090 -0.000007 -0.000001 -70.452000 3.265830 -0.289372 24.328600 0.000019 0.000005 10.665200 23.884400 -24.944000 22.291600 -0.000001 0.000005 -0.934763 4.882860 9.718130 12.994500 -0.242716 -4.980390 88.516800 5.018460 -73.511300 -5.348130 -0.000001 -0.000004 -70.884800 31.963400 -4.114040 -24.328900 0.000322 -0.000009 2.421360 7.813490 -17.284900 -22.291500 -0.000108 -0.000004 0.425929 5.280380 0.616029 -2.192480 -6.469440 -0.000000 -175.179000 -1.095260 -4.282290 39.081100 -0.000007 -0.000012 0.242011 -0.623298 21.220400 40.985400 -0.000006 -0.000013 1.924220 10.023600 -73.703500 11.754300 -0.000000 0.000003 -0.000242 0.171600 -9.616580 -2.192510 6.469440 -0.000001 -173.836000 8.518950 -178.566000 -39.081100 -0.002282 -0.040193 0.039923 -0.174013 11.874000 -40.985400 0.000008 0.000006 1.057330 1.878520 -69.832100 -11.754300 -0.000006 -0.000006 -0.011383 0.281364 -5.139360
0.000000 0.000000 0.000000 0.000000 0.000000 -0.000000 -2.239170 92.558700 1.025810 86.884300 0.085191 -0.892269 15.735700 0.000005 -0.000001 87.537700 87.789800 -85.645100 8.984550 -0.406207 -0.000000 -3.340680 -0.373150 3.775230 16.377300 -0.000001 -0.000001 3.973360 3.439740 -2.568900 6.456720 -0.000001 -0.000000 2.519510 3.708500 -6.890890 12.994200 -0.242716 4.980390 -92.971400 8.941370 -71.532300 5.348090 -0.000007 -0.000001 -69.342100 0.968861 -0.672925 24.328600 0.000019 0.000005 10.452200 22.911600 -25.354400 22.291600 -0.000001 0.000005 -0.728132 4.864760 10.072500 12.994500 -0.242716 -4.980390 88.534000 4.958810 -73.507500 -5.348130 -0.000001 -0.000004 -70.855300 32.015600 -4.175880 -24.328900 0.000322 -0.000009 2.405180 7.735280 -17.338500 -22.291500 -0.000108 -0.000004 0.619391 5.281360 0.589037 -2.192480 -6.469440 -0.000000 -175.110000 -1.333120 -4.390720 39.081100 -0.000007 -0.000012 0.242863 -0.623648 21.277600 40.985400 -0.000006 -0.000013 1.887900 10.062300 -73.726100 11.754300 -0.000000 0.000003 -0.000173 0.170484 -9.661930 -2.192510 6.469440 -0.000001 -173.732000 8.179890 -178.704000 -39.081100 -0.002282 -0.040193 0.041259 -0.179457 11.932500 -40.985400 0.000008 0.000006 1.105490 1.707480 -69.834300 -11.754300 -0.000006 -0.000006 -0.011265 0.280530 -5.173520
0.000000 0.000000 0.000000 0.000000 0.000000 -0.000000 -2.340240 92.542600 0.975901 86.785400 -0.044654 -0.884859 15.735700 0.000005 -0.000001 87.446800 87.767100 -85.486900 8.984550 -0.406207 -0.000000 -3.295070 -0.387918 3.909590 16.377300 -0.000001 -0.000001 3.909010 3.421730 -2.713800 6.456720 -0.000001 -0.000000 2.323020 3.667670 -7.244980 12.994200 -0.242716 4.980390 -93.001800 9.033870 -71.532300 5.348090 -0.000007 -0.000001 -68.086300 -1.106690 -0.951840 24.328600 0.000019 0.000005 10.064400 21.044700 -26.302900 22.291600 -0.000001 0.000005 -0.223341 4.839120 10.570100 12.994500 -0.242716 -4.980390 88.550400 4.900950 -73.500800 -5.348130 -0.000001 -0.000004 -70.755600 32.067900 -4.299670 -24.328900 0.000322 -0.000009 2.434400 7.804710 -17.390700 -22.291500 -0.000108 -0.000004 0.565390 5.280680 0.607942 -2.192480 -6.469440 -0.000000 -174.915000 -1.546240 -4.535890 39.081100 -0.000007 -0.000012 0.244417 -0.619481 21.532300 40.985400 -0.000006 -0.000013 1.738910 10.184600 -73.779900 11.754300 -0.000000 0.000003 -0.000336 0.173107 -9.555370 -2.192510 6.469440 -0.000001 -173.530000 7.876120 -178.768000 -39.081100 -0.002282 -0.040193 0.041714 -0.180585 11.998300 -40.985400 0.000008 0.000006 1.200650 1.495330 -69.810500 -11.754300 -0.000006 -0.000006 -0.011308 0.280833 -5.161120
0.000000 0.000000 0.000000 0.000000 0.000000 -0.000000 -2.453080 92.527100 0.941100 86.671800 -0.097620 -0.881900 15.735700 0.000005 -0.000001 86.725900 87.756400 -84.682300 8.984550 -0.406207 -0.000000 -3.274820 -0.452939 4.075180 16.377300 -0.000001 -0.000001 3.831030 3.437890 -2.829240 6.456720 -0.000001 -0.000000 2.286640 3.647670 -7.689370 12.994200 -0.242716 4.980390 -93.029600 9.110870 -71.518200 5.348090 -0.000007 -0.000001 -66.871100 -3.361920 -1.015920 24.328600 0.000019 0.000005 9.903040 19.074800 -28.112900 22.291600 -0.000001 0.000005 -0.080610 4.815910 11.015800 12.994500 -0.242716 -4.980390 88.558900 4.875730 -73.511700 -5.348130 -0.000001 -0.000004 -70.618100 32.038500 -4.396770 -24.328900 0.000322 -0.000009 2.386310 7.640860 -17.409100 -22.291500 -0.000108 -0.000004 0.613915 5.279480 0.640703 -2.192480 -6.469440 -0.000000 -174.658000 -1.766840 -4.703090 39.081100 -0.000007 -0.000012 0.239031 -0.597014 21.820600 40.985400 -0.000006 -0.000013 1.430110 10.471200 -73.816600 11.754300 -0.000000 0.000003 -0.000382 0.173828 -9.526090 -2.192510 6.469440 -0.000001 -173.334000 7.813640 -178.802000 -39.081100 -0.002282 -0.040193 0.041350 -0.178428 12.027100 -40.985400 0.000008 0.000006 1.243590 1.465140 -69.833600 -11.754300 -0.000006 -0.000006 -0.011596 0.282865 -5.077890
